<svg xmlns="http://www.w3.org/2000/svg" width="140" height="231" viewBox="0 0 140 231">
  <g id="Logo" transform="translate(-18047 18039)">
    <rect id="Rectangle_5538" data-name="Rectangle 5538" width="140" height="231" transform="translate(18047 -18039)" fill="#33835c"/>
    <g id="Group_5368" data-name="Group 5368" transform="translate(18061.23 -17916.42)">
      <path id="Path_3646" data-name="Path 3646" d="M140,162.461h-5.685a.542.542,0,0,0-.611.616v15.55a3.582,3.582,0,0,1-.711,2.553,3.062,3.062,0,0,1-2.25.706H116.8a6.216,6.216,0,0,1-3.606-.923,3.464,3.464,0,0,1-1.512-2.582c0-.244.012-.489.032-.733s.032-.51.032-.8a24,24,0,0,0-.711-5.932,13.063,13.063,0,0,0-2.372-4.92,11.631,11.631,0,0,0-4.451-3.391,16.7,16.7,0,0,0-6.906-1.261,13.555,13.555,0,0,0-6.474,1.419,16.27,16.27,0,0,0-4.564,3.577c-.244.244-.208.535.122.862l3.215,3.32a.568.568,0,0,0,.862-.061,10.192,10.192,0,0,1,2.961-2.138,8.435,8.435,0,0,1,3.7-.811,7.643,7.643,0,0,1,3.486.706,6.107,6.107,0,0,1,2.25,1.932,7.978,7.978,0,0,1,1.222,2.888,16.631,16.631,0,0,1,.371,3.623,14.232,14.232,0,0,1-.183,2.485,3.245,3.245,0,0,1-.733,1.63,2.991,2.991,0,0,1-1.542.857,11.052,11.052,0,0,1-2.59.244H75.632a3.664,3.664,0,0,1-2.538-1.085,5.083,5.083,0,0,1-1.256-3.445c.066-.718.1-1.522.1-2.443a22.651,22.651,0,0,0-.244-3.579,18.2,18.2,0,0,0-.706-2.822,9.772,9.772,0,0,0-4.295-5.275,14.025,14.025,0,0,0-7.432-1.886H36.243q-3.855,0-5.5,1.881t-1.649,5.89v30.34a.542.542,0,0,0,.613.628h5.685a.542.542,0,0,0,.611-.613v-28.7a3.58,3.58,0,0,1,.708-2.551,3.075,3.075,0,0,1,2.252-.706H47.9a10.323,10.323,0,0,0-.413,1,17.67,17.67,0,0,0-.711,2.827,27.163,27.163,0,0,0,0,7.161,17.664,17.664,0,0,0,.711,2.827,9.772,9.772,0,0,0,4.292,5.275,14.192,14.192,0,0,0,7.493,1.886A14.07,14.07,0,0,0,66.7,186.6a10.156,10.156,0,0,0,2.282-1.871,6.524,6.524,0,0,0,1.876,1.94,7.98,7.98,0,0,0,2.145.977,10.555,10.555,0,0,0,2.27.371c.77.042,1.5.064,2.211.064a.957.957,0,0,0,.205-.015h24.374a14.289,14.289,0,0,0,5.028-.779,6.107,6.107,0,0,0,3.23-2.912,5.231,5.231,0,0,0,2.99,2.988,13.562,13.562,0,0,0,4.534.687h15.6q3.853,0,5.5-1.881t1.649-5.888V163.072a.542.542,0,0,0-.606-.611ZM64.919,177.413a8.171,8.171,0,0,1-.462,1.881,4.886,4.886,0,0,1-1.932,2.274,6.073,6.073,0,0,1-3.259.806,6.216,6.216,0,0,1-3.286-.806,4.842,4.842,0,0,1-1.954-2.274,8.306,8.306,0,0,1-.462-1.881,21.073,21.073,0,0,1-.115-2.47,20.4,20.4,0,0,1,.115-2.443,9.212,9.212,0,0,1,.462-1.908,4.835,4.835,0,0,1,1.954-2.272,6.193,6.193,0,0,1,3.286-.806,6.054,6.054,0,0,1,3.259.806,4.886,4.886,0,0,1,1.932,2.272,9.058,9.058,0,0,1,.462,1.908,20.932,20.932,0,0,1,.115,2.443,21.625,21.625,0,0,1-.115,2.47Z" transform="translate(-29.082 -149.683)" fill="#fff"/>
      <path id="Path_3647" data-name="Path 3647" d="M157.1,147.8h-5.91a.547.547,0,0,0-.616.625v5.35a.547.547,0,0,0,.616.625h5.919a.547.547,0,0,0,.616-.625v-5.35a.55.55,0,0,0-.625-.625Z" transform="translate(-46.204 -147.796)" fill="#fff"/>
      <path id="Path_3648" data-name="Path 3648" d="M102.07,197.174H96.15a.572.572,0,0,0-.643.651v5.591a.571.571,0,0,0,.643.651h5.92a.574.574,0,0,0,.646-.651v-5.591a.574.574,0,0,0-.646-.651Z" transform="translate(-38.854 -154.82)" fill="#fff"/>
      <path id="Path_3649" data-name="Path 3649" d="M47.9,241.622a.545.545,0,0,1-.618-.616V223.861a7.31,7.31,0,0,0-1.419-4.683,5.031,5.031,0,0,0-4.187-1.791,5.13,5.13,0,0,0-4.192,1.791A7.129,7.129,0,0,0,36,223.861v17.145a.545.545,0,0,1-.618.616H29.7a.542.542,0,0,1-.616-.616V212.515a.542.542,0,0,1,.616-.616h5.673a.545.545,0,0,1,.618.616v2.16h.061a8.033,8.033,0,0,1,2.932-2.443,10.421,10.421,0,0,1,4.9-1.016,10.461,10.461,0,0,1,4.285.833,9.613,9.613,0,0,1,3.237,2.311,10.069,10.069,0,0,1,2.067,3.481,13.192,13.192,0,0,1,.708,4.41V241a.545.545,0,0,1-.616.616Z" transform="translate(-29.081 -156.63)" fill="#fff"/>
      <path id="Path_3650" data-name="Path 3650" d="M80.649,241.623a.542.542,0,0,1-.616-.616v-2.16H79.97a7.323,7.323,0,0,1-3.144,2.5,12.777,12.777,0,0,1-5.243.958,13.165,13.165,0,0,1-3.853-.555,9.1,9.1,0,0,1-3.176-1.659,7.889,7.889,0,0,1-2.157-2.795,9.283,9.283,0,0,1-.8-4.029q0-4.852,3.176-7.126t8.727-2.277H79.54a.327.327,0,0,0,.369-.374v-1.432a4.671,4.671,0,0,0-1.419-3.794q-1.418-1.18-5.179-1.182a12.219,12.219,0,0,0-4.131.586,9,9,0,0,0-2.653,1.449q-.555.432-.862-.122l-2.282-4.07a.53.53,0,0,1,.125-.8,15.051,15.051,0,0,1,4.317-2.1,20.958,20.958,0,0,1,6.227-.8q6.782,0,9.589,2.467t2.807,7.893v19.425a.545.545,0,0,1-.618.616Zm-7.329-4.935a8.32,8.32,0,0,0,4.9-1.222,4.393,4.393,0,0,0,1.7-3.823v-2.282a.325.325,0,0,0-.369-.369H74.615a9.571,9.571,0,0,0-4.871.953,3.33,3.33,0,0,0-1.554,3.044q0,3.7,5.111,3.7Z" transform="translate(-33.609 -156.631)" fill="#fff"/>
      <path id="Path_3651" data-name="Path 3651" d="M89.812,252.826a.547.547,0,0,1-.618-.618v-4.925a.545.545,0,0,1,.618-.616h1.356a3.9,3.9,0,0,0,2.651-.733,3.73,3.73,0,0,0,.8-2.775V212.626a.542.542,0,0,1,.616-.616h5.673a.545.545,0,0,1,.618.616v30.4q0,5.179-2.56,7.49t-7.432,2.306Z" transform="translate(-37.454 -156.74)" fill="#fff"/>
      <path id="Path_3652" data-name="Path 3652" d="M145.37,241.622a.545.545,0,0,1-.616-.616V223.861a7.319,7.319,0,0,0-1.417-4.683,5.035,5.035,0,0,0-4.195-1.791,5.137,5.137,0,0,0-4.195,1.791,7.052,7.052,0,0,0-1.466,4.683v17.145a.545.545,0,0,1-.618.616h-5.685a.545.545,0,0,1-.616-.616V223.861a7.31,7.31,0,0,0-1.419-4.683,5.036,5.036,0,0,0-4.192-1.791,5.132,5.132,0,0,0-4.195,1.791,7.129,7.129,0,0,0-1.481,4.683v17.145a.545.545,0,0,1-.616.616h-5.673a.545.545,0,0,1-.618-.616V212.515a.545.545,0,0,1,.618-.616h5.673a.545.545,0,0,1,.616.616v2.16h.064a8.033,8.033,0,0,1,2.932-2.443,10.425,10.425,0,0,1,4.906-1.016,10.556,10.556,0,0,1,4.715,1.016,9.06,9.06,0,0,1,3.42,2.932h.071a12.654,12.654,0,0,1,4.007-2.9,13.08,13.08,0,0,1,5.489-1.048,11.847,11.847,0,0,1,4.593.833,9.662,9.662,0,0,1,3.384,2.311,9.84,9.84,0,0,1,2.1,3.481,13.192,13.192,0,0,1,.709,4.41V241a.545.545,0,0,1-.618.616Z" transform="translate(-40.126 -156.63)" fill="#fff"/>
    </g>
  </g>
</svg>
